<svg width="206.2349609375px" height="190.4249755859375px" 
xmlns="http://www.w3.org/2000/svg" 
viewBox="78.03311767578126 -20.212487792968744 70.9337646484375 180.4249755859375"  
style="background: rgba(0, 0, 0, 0);" preserveAspectRatio="xMidYMid"><defs>
</defs><g><g transform="translate(178.36999797821045, 108.21749877929688)"><path d="M7.71 0L7.71-66.31L18.80-66.31L18.80-38.13L44.68-38.13L44.68-66.31L55.71-66.31L55.71 0L44.68 0L44.68-29.64L18.80-29.64L18.80 0L7.71 0ZM71.14 0L71.14-66.31L82.18-66.31L82.18 0L71.14 0ZM107.57 0L107.57-58.11L107.57-58.11Q103.91-58.06 100.95-58.01L100.95-58.01L100.95-58.01Q98.00-57.96 95.90-57.86L95.90-57.86L95.90-57.86Q93.46-57.76 91.55-57.67L91.55-57.67L91.55-57.67Q91.46-58.25 91.41-58.84L91.41-58.84L91.41-58.84Q91.26-59.86 91.26-61.38L91.26-61.38L91.26-61.38Q91.26-62.26 91.38-63.50L91.38-63.50L91.38-63.50Q91.50-64.75 91.85-66.31L91.85-66.31L135.30-66.31L135.30-66.31Q135.35-65.82 135.40-65.28L135.40-65.28L135.40-65.28Q135.45-64.84 135.50-64.28L135.50-64.28L135.50-64.28Q135.55-63.72 135.55-63.18L135.55-63.18L135.55-63.18Q135.55-62.21 135.38-60.64L135.38-60.64L135.38-60.64Q135.21-59.08 134.77-57.71L134.77-57.71L134.77-57.71Q134.38-57.76 132.74-57.84L132.74-57.84L132.74-57.84Q131.10-57.91 128.81-57.96L128.81-57.96L128.81-57.96Q126.51-58.01 123.83-58.06L123.83-58.06L123.83-58.06Q121.14-58.11 118.60-58.11L118.60-58.11L118.60 0L107.57 0Z" fill="currentColor"></path></g></g><style>text {
  font-size: 64px;
  font-family: Arial Black;
  dominant-baseline: central;
  text-anchor: middle;
}</style></svg>