<svg 
width="250.9337646484375px" 
height="250.4249755859375px" 
xmlns="http://www.w3.org/2000/svg" 
viewBox="120.03311767578126 -20.212487792968744 120.9337646484375 191.4249755859375"
style="background: rgba(0, 0, 0, 0);" 
preserveAspectRatio="xMidYMid"><defs>
</defs><g ><g transform="translate(145.92719173431396, 108.21749877929688)">
<path fill="currentColor" 
d="M7.71 0L7.71-66.31L25.24-66.31L41.99-24.90L48.68-6.05L48.05-24.90L47.71-66.31L58.25-66.31L58.25 0L41.16 0L24.02-41.50L17.33-60.64L17.97-41.50L18.31 0L7.71 0ZM73.68 0L73.68-66.31L111.72-66.31L111.72-66.31Q111.72-65.97 111.77-65.58L111.77-65.58L111.77-65.58Q111.82-65.23 111.84-64.82L111.84-64.82L111.84-64.82Q111.87-64.40 111.87-63.92L111.87-63.92L111.87-63.92Q111.87-63.09 111.55-61.40L111.55-61.40L111.55-61.40Q111.23-59.72 110.16-57.52L110.16-57.52L110.16-57.52Q106.10-57.67 101.76-57.81L101.76-57.81L101.76-57.81Q98.05-57.91 93.55-58.03L93.55-58.03L93.55-58.03Q89.06-58.15 84.77-58.15L84.77-58.15L84.77-38.13L84.77-38.13Q86.18-38.13 87.96-38.16L87.96-38.16L87.96-38.16Q89.75-38.18 91.67-38.23L91.67-38.23L91.67-38.23Q93.60-38.28 95.56-38.33L95.56-38.33L95.56-38.33Q97.51-38.38 99.37-38.43L99.37-38.43L99.37-38.43Q103.66-38.57 108.20-38.67L108.20-38.67L108.20-38.67Q108.20-38.28 108.25-37.84L108.25-37.84L108.25-37.84Q108.30-37.45 108.33-36.94L108.33-36.94L108.33-36.94Q108.35-36.43 108.35-35.89L108.35-35.89L108.35-35.89Q108.35-35.64 108.28-34.94L108.28-34.94L108.28-34.94Q108.20-34.23 108.03-33.35L108.03-33.35L108.03-33.35Q107.86-32.47 107.64-31.59L107.64-31.59L107.64-31.59Q107.42-30.71 107.13-30.13L107.13-30.13L107.13-30.13Q102.59-30.13 98.39-30.18L98.39-30.18L98.39-30.18Q96.58-30.18 94.68-30.18L94.68-30.18L94.68-30.18Q92.77-30.18 90.99-30.20L90.99-30.20L90.99-30.20Q89.21-30.22 87.60-30.22L87.60-30.22L87.60-30.22Q85.99-30.22 84.77-30.22L84.77-30.22L84.77-8.35L84.77-8.35Q89.06-8.35 93.82-8.50L93.82-8.50L93.82-8.50Q98.58-8.64 102.69-8.79L102.69-8.79L102.69-8.79Q107.47-8.98 112.11-9.23L112.11-9.23L112.11-9.23Q112.11-8.79 112.16-8.30L112.16-8.30L112.16-8.30Q112.21-7.91 112.23-7.35L112.23-7.35L112.23-7.35Q112.26-6.79 112.26-6.25L112.26-6.25L112.26-6.25Q112.26-5.22 112.11-3.56L112.11-3.56L112.11-3.56Q111.96-1.90 111.47 0L111.47 0L73.68 0ZM130.27 0L114.75-66.31L126.17-66.31L138.57-9.38L151.56-66.31L165.23-66.31L178.03-9.18L190.48-66.31L201.42-66.31L185.79 0L170.65 0L159.86-47.90L158.11-60.16L156.30-47.90L145.46 0L130.27 0Z"></path></g></g><style>
text {
  font-size: 64px;
  font-family: Arial Black;
  dominant-baseline: central;
  text-anchor: middle;
}</style></svg>