<svg aria-hidden="true" focusable="false" data-prefix="fad" data-icon="th-large" role="img" xmlns="http://www.w3.org/2000/svg" viewBox="0 0 512 512" class="svg-inline--fa fa-th-large fa-w-16 fa-7x"><g class="fa-group"><path fill="currentColor" d="M488 272H296a24 24 0 0 0-24 24v160a24 24 0 0 0 24 24h192a24 24 0 0 0 24-24V296a24 24 0 0 0-24-24zm-272 0H24a24 24 0 0 0-24 24v160a24 24 0 0 0 24 24h192a24 24 0 0 0 24-24V296a24 24 0 0 0-24-24z" class="fa-secondary"></path><path fill="currentColor" d="M488 32H296a24 24 0 0 0-24 24v160a24 24 0 0 0 24 24h192a24 24 0 0 0 24-24V56a24 24 0 0 0-24-24zm-272 0H24A24 24 0 0 0 0 56v160a24 24 0 0 0 24 24h192a24 24 0 0 0 24-24V56a24 24 0 0 0-24-24z" class="fa-primary"></path></g></svg>