<svg aria-hidden="true" focusable="false" data-prefix="fad" data-icon="th-list" role="img" xmlns="http://www.w3.org/2000/svg" viewBox="0 0 512 512" class="svg-inline--fa fa-th-list fa-w-16 fa-7x"><g class="fa-group"><path fill="currentColor" d="M488 352H205.33a24 24 0 0 0-24 24v80a24 24 0 0 0 24 24H488a24 24 0 0 0 24-24v-80a24 24 0 0 0-24-24zm0-320H205.33a24 24 0 0 0-24 24v80a24 24 0 0 0 24 24H488a24 24 0 0 0 24-24V56a24 24 0 0 0-24-24zm0 160H205.33a24 24 0 0 0-24 24v80a24 24 0 0 0 24 24H488a24 24 0 0 0 24-24v-80a24 24 0 0 0-24-24z" class="fa-secondary"></path><path fill="currentColor" d="M125.33 192H24a24 24 0 0 0-24 24v80a24 24 0 0 0 24 24h101.33a24 24 0 0 0 24-24v-80a24 24 0 0 0-24-24zm0-160H24A24 24 0 0 0 0 56v80a24 24 0 0 0 24 24h101.33a24 24 0 0 0 24-24V56a24 24 0 0 0-24-24zm0 320H24a24 24 0 0 0-24 24v80a24 24 0 0 0 24 24h101.33a24 24 0 0 0 24-24v-80a24 24 0 0 0-24-24z" class="fa-primary"></path></g></svg>